<svg width="123" height="32" viewBox="0 0 123 32" fill="none" xmlns="http://www.w3.org/2000/svg">
<g clip-path="url(#clip0_4584_1604)">
<rect width="32" height="32" rx="8" fill="white"/>
<rect width="32" height="32" rx="8" fill="url(#paint0_linear_4584_1604)"/>
<path fill-rule="evenodd" clip-rule="evenodd" d="M15.9998 2.03861C8.28923 2.03861 2.03861 8.28923 2.03861 15.9998C2.03861 23.7103 8.28923 29.9609 15.9998 29.9609C23.7103 29.9609 29.9609 23.7103 29.9609 15.9998C29.9609 8.28923 23.7103 2.03861 15.9998 2.03861ZM1.96094 15.9998C1.96094 8.24634 8.24634 1.96094 15.9998 1.96094C23.7532 1.96094 30.0386 8.24634 30.0386 15.9998C30.0386 23.7532 23.7532 30.0386 15.9998 30.0386C8.24634 30.0386 1.96094 23.7532 1.96094 15.9998Z" fill="#D0D5DD"/>
<path fill-rule="evenodd" clip-rule="evenodd" d="M16 12.0777C13.8338 12.0777 12.0777 13.8338 12.0777 16C12.0777 18.1662 13.8338 19.9223 16 19.9223C18.1662 19.9223 19.9223 18.1662 19.9223 16C19.9223 13.8338 18.1662 12.0777 16 12.0777ZM12 16C12 13.7909 13.7909 12 16 12C18.2091 12 20 13.7909 20 16C20 18.2091 18.2091 20 16 20C13.7909 20 12 18.2091 12 16Z" fill="#D0D5DD"/>
<path fill-rule="evenodd" clip-rule="evenodd" d="M16.0004 13.3199C14.5205 13.3199 13.3208 14.5196 13.3208 15.9995C13.3208 17.4794 14.5205 18.6791 16.0004 18.6791C17.4804 18.6791 18.6801 17.4794 18.6801 15.9995C18.6801 14.5196 17.4804 13.3199 16.0004 13.3199ZM13.2432 15.9995C13.2432 14.4767 14.4776 13.2422 16.0004 13.2422C17.5233 13.2422 18.7577 14.4767 18.7577 15.9995C18.7577 17.5223 17.5233 18.7568 16.0004 18.7568C14.4776 18.7568 13.2432 17.5223 13.2432 15.9995Z" fill="#D0D5DD"/>
<path d="M15.9609 0H16.0386V32H15.9609V0Z" fill="#D0D5DD"/>
<path d="M32 15.9609L32 16.0386L-3.39506e-09 16.0386L0 15.9609L32 15.9609Z" fill="#D0D5DD"/>
<path d="M26.6016 0H26.6792V32H26.6016V0Z" fill="#D0D5DD"/>
<path d="M10.6406 0H10.7183V32H10.6406V0Z" fill="#D0D5DD"/>
<path d="M21.2812 0H21.3589V32H21.2812V0Z" fill="#D0D5DD"/>
<path d="M5.32031 0H5.39798V32H5.32031V0Z" fill="#D0D5DD"/>
<path d="M32 26.6016L32 26.6792L-3.39506e-09 26.6792L0 26.6016L32 26.6016Z" fill="#D0D5DD"/>
<path d="M32 10.6406L32 10.7183L-3.39506e-09 10.7183L0 10.6406L32 10.6406Z" fill="#D0D5DD"/>
<path d="M32 21.2812L32 21.3589L-3.39506e-09 21.3589L0 21.2812L32 21.2812Z" fill="#D0D5DD"/>
<path d="M32 5.32031L32 5.39798L-3.39506e-09 5.39798L0 5.32031L32 5.32031Z" fill="#D0D5DD"/>
<g filter="url(#filter0_b_4584_1604)">
<path d="M0 16H32V19.2C32 23.6804 32 25.9206 31.1281 27.6319C30.3611 29.1372 29.1372 30.3611 27.6319 31.1281C25.9206 32 23.6804 32 19.2 32H12.8C8.31958 32 6.07937 32 4.36808 31.1281C2.86278 30.3611 1.63893 29.1372 0.871948 27.6319C0 25.9206 0 23.6804 0 19.2V16Z" fill="white" fill-opacity="0.2"/>
</g>
<mask id="mask0_4584_1604" style="mask-type:alpha" maskUnits="userSpaceOnUse" x="8" y="5" width="16" height="22">
<path d="M8 6.5C8 5.67157 8.67157 5 9.5 5H18L24 11V25.5C24 26.3284 23.3284 27 22.5 27H9.5C8.67157 27 8 26.3284 8 25.5V6.5Z" fill="black"/>
</mask>
<g mask="url(#mask0_4584_1604)">
<path d="M8 6.5C8 5.67157 8.67157 5 9.5 5H22.5C23.3284 5 24 5.67157 24 6.5V25.5C24 26.3284 23.3284 27 22.5 27H9.5C8.67157 27 8 26.3284 8 25.5V6.5Z" fill="#4E8DF5"/>
<path fill-rule="evenodd" clip-rule="evenodd" d="M9.5 27C8.67157 27 8 26.3284 8 25.5V25.25C8 26.0784 8.67157 26.75 9.5 26.75H22.5C23.3284 26.75 24 26.0784 24 25.25V25.5C24 26.3284 23.3284 27 22.5 27H9.5Z" fill="#417EE9"/>
<path fill-rule="evenodd" clip-rule="evenodd" d="M9.5 5C8.67157 5 8 5.67157 8 6.5V6.75C8 5.92157 8.67157 5.25 9.5 5.25H22.5C23.3284 5.25 24 5.92157 24 6.75V6.5C24 5.67157 23.3284 5 22.5 5H9.5Z" fill="#639AF6"/>
<path d="M24 16.125L18.6402 10.7652C18.4039 10.5289 18.5712 10.125 18.9053 10.125H24V16.125Z" fill="url(#paint1_linear_4584_1604)"/>
<path d="M18 5L24 11H19.5C18.6716 11 18 10.3284 18 9.5V5Z" fill="#A6C5FA"/>
<path fill-rule="evenodd" clip-rule="evenodd" d="M20 16H12V17H20V16ZM20 18H12V19H20V18ZM12 20H20V21H12V20ZM18 22H12V23H18V22Z" fill="white"/>
</g>
</g>
<rect x="0.1" y="0.1" width="31.8" height="31.8" rx="7.9" stroke="#D0D5DD" stroke-width="0.2"/>
<path d="M46.456 9.90909H48.8082V19.1136C48.804 19.9574 48.625 20.6839 48.2713 21.2933C47.9176 21.8984 47.4233 22.3651 46.7884 22.6932C46.1577 23.017 45.4226 23.179 44.5831 23.179C43.8161 23.179 43.1257 23.0426 42.5121 22.7699C41.9027 22.4929 41.419 22.0838 41.0611 21.5426C40.7031 21.0014 40.5241 20.3281 40.5241 19.5227H42.8828C42.8871 19.8764 42.9638 20.1811 43.1129 20.4368C43.2663 20.6925 43.4773 20.8885 43.7457 21.0249C44.0142 21.1612 44.3232 21.2294 44.6726 21.2294C45.0518 21.2294 45.3736 21.1506 45.6378 20.9929C45.902 20.831 46.1023 20.5923 46.2386 20.277C46.3793 19.9616 46.4517 19.5739 46.456 19.1136V9.90909ZM58.4954 13.5078C58.4357 12.9496 58.1843 12.5149 57.7411 12.2038C57.3022 11.8928 56.7312 11.7372 56.0281 11.7372C55.5337 11.7372 55.1097 11.8118 54.756 11.9609C54.4023 12.1101 54.1317 12.3125 53.9442 12.5682C53.7567 12.8239 53.6609 13.1158 53.6566 13.4439C53.6566 13.7166 53.7184 13.9531 53.842 14.1534C53.9698 14.3537 54.1424 14.5241 54.3597 14.6648C54.5771 14.8011 54.8178 14.9162 55.082 15.0099C55.3462 15.1037 55.6126 15.1825 55.881 15.2464L57.1083 15.5533C57.6026 15.6683 58.0778 15.8239 58.5337 16.0199C58.994 16.2159 59.4052 16.4631 59.7674 16.7614C60.1339 17.0597 60.4237 17.4197 60.6367 17.8416C60.8498 18.2635 60.9563 18.7578 60.9563 19.3246C60.9563 20.0916 60.7603 20.767 60.3683 21.3509C59.9762 21.9304 59.4094 22.3842 58.668 22.7124C57.9308 23.0362 57.038 23.1982 55.9897 23.1982C54.9712 23.1982 54.087 23.0405 53.337 22.7251C52.5913 22.4098 52.0075 21.9496 51.5856 21.3445C51.168 20.7393 50.9421 20.0021 50.908 19.1328H53.2411C53.2752 19.5888 53.4158 19.968 53.663 20.2706C53.9102 20.5732 54.2319 20.799 54.6282 20.9482C55.0288 21.0973 55.4762 21.1719 55.9705 21.1719C56.4862 21.1719 56.9379 21.0952 57.3256 20.9418C57.7177 20.7841 58.0245 20.5668 58.2461 20.2898C58.4677 20.0085 58.5806 19.6804 58.5849 19.3054C58.5806 18.9645 58.4805 18.6832 58.2844 18.4616C58.0884 18.2358 57.8136 18.0483 57.4599 17.8991C57.1104 17.7457 56.7013 17.6094 56.2326 17.4901L54.7433 17.1065C53.6651 16.8295 52.8129 16.4098 52.1864 15.8473C51.5643 15.2805 51.2532 14.5284 51.2532 13.5909C51.2532 12.8196 51.462 12.1442 51.8796 11.5646C52.3015 10.9851 52.8746 10.5355 53.5991 10.2159C54.3235 9.89204 55.1438 9.73011 56.06 9.73011C56.989 9.73011 57.8029 9.89204 58.5018 10.2159C59.2049 10.5355 59.7567 10.9808 60.1573 11.5518C60.5579 12.1186 60.7646 12.7706 60.7773 13.5078H58.4954ZM63.0705 9.90909H65.9725L69.8588 19.3949H70.0123L73.8986 9.90909H76.8006V23H74.525V14.0064H74.4036L70.7857 22.9616H69.0854L65.4675 13.9872H65.3461V23H63.0705V9.90909ZM83.8191 23H79.383V9.90909H83.9086C85.2083 9.90909 86.3248 10.1712 87.258 10.6953C88.1955 11.2152 88.9157 11.9631 89.4185 12.9389C89.9213 13.9148 90.1728 15.0824 90.1728 16.4418C90.1728 17.8054 89.9192 18.9773 89.4121 19.9574C88.9093 20.9375 88.1827 21.6896 87.2324 22.2138C86.2864 22.7379 85.1486 23 83.8191 23ZM81.7544 20.9482H83.704C84.6159 20.9482 85.3766 20.782 85.986 20.4496C86.5953 20.1129 87.0534 19.6122 87.3603 18.9474C87.6671 18.2784 87.8205 17.4432 87.8205 16.4418C87.8205 15.4403 87.6671 14.6094 87.3603 13.9489C87.0534 13.2841 86.5996 12.7876 85.9988 12.4595C85.4022 12.1271 84.6607 11.9609 83.7743 11.9609H81.7544V20.9482ZM96.6064 23.1918C95.6475 23.1918 94.8166 22.9808 94.1135 22.5589C93.4103 22.1371 92.8649 21.5469 92.4771 20.7884C92.0936 20.0298 91.9018 19.1435 91.9018 18.1293C91.9018 17.1151 92.0936 16.2266 92.4771 15.4638C92.8649 14.701 93.4103 14.1087 94.1135 13.6868C94.8166 13.2649 95.6475 13.054 96.6064 13.054C97.5652 13.054 98.3961 13.2649 99.0993 13.6868C99.8024 14.1087 100.346 14.701 100.729 15.4638C101.117 16.2266 101.311 17.1151 101.311 18.1293C101.311 19.1435 101.117 20.0298 100.729 20.7884C100.346 21.5469 99.8024 22.1371 99.0993 22.5589C98.3961 22.9808 97.5652 23.1918 96.6064 23.1918ZM96.6191 21.3381C97.139 21.3381 97.5737 21.1953 97.9231 20.9098C98.2725 20.62 98.5325 20.2322 98.7029 19.7464C98.8777 19.2607 98.965 18.7195 98.965 18.1229C98.965 17.522 98.8777 16.9787 98.7029 16.4929C98.5325 16.0028 98.2725 15.6129 97.9231 15.3232C97.5737 15.0334 97.139 14.8885 96.6191 14.8885C96.0865 14.8885 95.6433 15.0334 95.2896 15.3232C94.9402 15.6129 94.6781 16.0028 94.5034 16.4929C94.3329 16.9787 94.2477 17.522 94.2477 18.1229C94.2477 18.7195 94.3329 19.2607 94.5034 19.7464C94.6781 20.2322 94.9402 20.62 95.2896 20.9098C95.6433 21.1953 96.0865 21.3381 96.6191 21.3381ZM107.558 23.1918C106.577 23.1918 105.736 22.9766 105.033 22.5462C104.334 22.1158 103.795 21.5213 103.415 20.7628C103.04 20 102.853 19.1222 102.853 18.1293C102.853 17.1321 103.045 16.2521 103.428 15.4893C103.812 14.7223 104.353 14.1257 105.052 13.6996C105.755 13.2692 106.586 13.054 107.545 13.054C108.342 13.054 109.047 13.201 109.661 13.495C110.278 13.7848 110.771 14.196 111.137 14.7287C111.504 15.2571 111.712 15.875 111.763 16.5824H109.552C109.462 16.1094 109.249 15.7152 108.913 15.3999C108.58 15.0803 108.135 14.9205 107.577 14.9205C107.104 14.9205 106.688 15.0483 106.33 15.304C105.972 15.5554 105.693 15.9176 105.493 16.3906C105.297 16.8636 105.199 17.4304 105.199 18.0909C105.199 18.7599 105.297 19.3352 105.493 19.8168C105.689 20.294 105.964 20.6626 106.317 20.9226C106.675 21.1783 107.095 21.3061 107.577 21.3061C107.918 21.3061 108.222 21.2422 108.491 21.1143C108.763 20.9822 108.991 20.7926 109.175 20.5455C109.358 20.2983 109.484 19.9979 109.552 19.6442H111.763C111.708 20.3388 111.504 20.9545 111.15 21.4915C110.796 22.0241 110.315 22.4418 109.705 22.7443C109.096 23.0426 108.38 23.1918 107.558 23.1918ZM121.423 15.777L119.314 16.0071C119.254 15.794 119.15 15.5938 119.001 15.4062C118.856 15.2188 118.66 15.0675 118.413 14.9524C118.166 14.8374 117.863 14.7798 117.505 14.7798C117.024 14.7798 116.619 14.8842 116.291 15.093C115.967 15.3018 115.807 15.5724 115.811 15.9048C115.807 16.1903 115.911 16.4226 116.124 16.6016C116.342 16.7805 116.7 16.9276 117.198 17.0426L118.873 17.4006C119.802 17.6009 120.492 17.9183 120.944 18.353C121.4 18.7876 121.63 19.3565 121.634 20.0597C121.63 20.6776 121.449 21.223 121.091 21.696C120.737 22.1648 120.245 22.5312 119.615 22.7955C118.984 23.0597 118.259 23.1918 117.441 23.1918C116.24 23.1918 115.272 22.9403 114.539 22.4375C113.806 21.9304 113.369 21.2251 113.229 20.3217L115.485 20.1044C115.588 20.5476 115.805 20.8821 116.137 21.108C116.47 21.3338 116.902 21.4467 117.435 21.4467C117.985 21.4467 118.426 21.3338 118.758 21.108C119.095 20.8821 119.263 20.603 119.263 20.2706C119.263 19.9893 119.154 19.7571 118.937 19.5739C118.724 19.3906 118.392 19.25 117.94 19.152L116.265 18.8004C115.323 18.6044 114.627 18.2741 114.175 17.8097C113.723 17.3409 113.499 16.7486 113.504 16.0327C113.499 15.4276 113.664 14.9034 113.996 14.4602C114.333 14.0128 114.799 13.6676 115.396 13.4247C115.997 13.1776 116.689 13.054 117.473 13.054C118.624 13.054 119.529 13.299 120.19 13.7891C120.855 14.2791 121.266 14.9418 121.423 15.777Z" fill="white"/>
<defs>
<filter id="filter0_b_4584_1604" x="-5" y="11" width="42" height="26" filterUnits="userSpaceOnUse" color-interpolation-filters="sRGB">
<feFlood flood-opacity="0" result="BackgroundImageFix"/>
<feGaussianBlur in="BackgroundImageFix" stdDeviation="2.5"/>
<feComposite in2="SourceAlpha" operator="in" result="effect1_backgroundBlur_4584_1604"/>
<feBlend mode="normal" in="SourceGraphic" in2="effect1_backgroundBlur_4584_1604" result="shape"/>
</filter>
<linearGradient id="paint0_linear_4584_1604" x1="16" y1="0" x2="16" y2="32" gradientUnits="userSpaceOnUse">
<stop stop-color="white"/>
<stop offset="1" stop-color="#D0D5DD"/>
</linearGradient>
<linearGradient id="paint1_linear_4584_1604" x1="21" y1="16.125" x2="21" y2="10" gradientUnits="userSpaceOnUse">
<stop stop-color="#4E8DF5"/>
<stop offset="1" stop-color="#3D6ACD"/>
</linearGradient>
<clipPath id="clip0_4584_1604">
<rect width="32" height="32" rx="8" fill="white"/>
</clipPath>
</defs>
</svg>
