<svg width="32" height="32" viewBox="0 0 32 32" fill="none" xmlns="http://www.w3.org/2000/svg">
<g clip-path="url(#clip0_4584_1674)">
<rect width="32" height="32" rx="8" fill="white"/>
<rect width="32" height="32" rx="8" fill="url(#paint0_linear_4584_1674)"/>
<path fill-rule="evenodd" clip-rule="evenodd" d="M15.9998 2.03861C8.28923 2.03861 2.03861 8.28923 2.03861 15.9998C2.03861 23.7103 8.28923 29.9609 15.9998 29.9609C23.7103 29.9609 29.9609 23.7103 29.9609 15.9998C29.9609 8.28923 23.7103 2.03861 15.9998 2.03861ZM1.96094 15.9998C1.96094 8.24634 8.24634 1.96094 15.9998 1.96094C23.7532 1.96094 30.0386 8.24634 30.0386 15.9998C30.0386 23.7532 23.7532 30.0386 15.9998 30.0386C8.24634 30.0386 1.96094 23.7532 1.96094 15.9998Z" fill="#D0D5DD"/>
<path fill-rule="evenodd" clip-rule="evenodd" d="M16 12.0777C13.8338 12.0777 12.0777 13.8338 12.0777 16C12.0777 18.1662 13.8338 19.9223 16 19.9223C18.1662 19.9223 19.9223 18.1662 19.9223 16C19.9223 13.8338 18.1662 12.0777 16 12.0777ZM12 16C12 13.7909 13.7909 12 16 12C18.2091 12 20 13.7909 20 16C20 18.2091 18.2091 20 16 20C13.7909 20 12 18.2091 12 16Z" fill="#D0D5DD"/>
<path fill-rule="evenodd" clip-rule="evenodd" d="M16.0004 13.3199C14.5205 13.3199 13.3208 14.5196 13.3208 15.9995C13.3208 17.4794 14.5205 18.6791 16.0004 18.6791C17.4804 18.6791 18.6801 17.4794 18.6801 15.9995C18.6801 14.5196 17.4804 13.3199 16.0004 13.3199ZM13.2432 15.9995C13.2432 14.4767 14.4776 13.2422 16.0004 13.2422C17.5233 13.2422 18.7577 14.4767 18.7577 15.9995C18.7577 17.5223 17.5233 18.7568 16.0004 18.7568C14.4776 18.7568 13.2432 17.5223 13.2432 15.9995Z" fill="#D0D5DD"/>
<path d="M15.9609 0H16.0386V32H15.9609V0Z" fill="#D0D5DD"/>
<path d="M32 15.9609L32 16.0386L-3.39506e-09 16.0386L0 15.9609L32 15.9609Z" fill="#D0D5DD"/>
<path d="M26.6016 0H26.6792V32H26.6016V0Z" fill="#D0D5DD"/>
<path d="M10.6406 0H10.7183V32H10.6406V0Z" fill="#D0D5DD"/>
<path d="M21.2812 0H21.3589V32H21.2812V0Z" fill="#D0D5DD"/>
<path d="M5.32031 0H5.39798V32H5.32031V0Z" fill="#D0D5DD"/>
<path d="M32 26.6016L32 26.6792L-3.39506e-09 26.6792L0 26.6016L32 26.6016Z" fill="#D0D5DD"/>
<path d="M32 10.6406L32 10.7183L-3.39506e-09 10.7183L0 10.6406L32 10.6406Z" fill="#D0D5DD"/>
<path d="M32 21.2812L32 21.3589L-3.39506e-09 21.3589L0 21.2812L32 21.2812Z" fill="#D0D5DD"/>
<path d="M32 5.32031L32 5.39798L-3.39506e-09 5.39798L0 5.32031L32 5.32031Z" fill="#D0D5DD"/>
<g filter="url(#filter0_b_4584_1674)">
<path d="M0 16H32V19.2C32 23.6804 32 25.9206 31.1281 27.6319C30.3611 29.1372 29.1372 30.3611 27.6319 31.1281C25.9206 32 23.6804 32 19.2 32H12.8C8.31958 32 6.07937 32 4.36808 31.1281C2.86278 30.3611 1.63893 29.1372 0.871948 27.6319C0 25.9206 0 23.6804 0 19.2V16Z" fill="white" fill-opacity="0.2"/>
</g>
<mask id="mask0_4584_1674" style="mask-type:alpha" maskUnits="userSpaceOnUse" x="8" y="5" width="16" height="22">
<path d="M8 6.5C8 5.67157 8.67157 5 9.5 5H18L24 11V25.5C24 26.3284 23.3284 27 22.5 27H9.5C8.67157 27 8 26.3284 8 25.5V6.5Z" fill="black"/>
</mask>
<g mask="url(#mask0_4584_1674)">
<path d="M8 6.5C8 5.67157 8.67157 5 9.5 5H22.5C23.3284 5 24 5.67157 24 6.5V25.5C24 26.3284 23.3284 27 22.5 27H9.5C8.67157 27 8 26.3284 8 25.5V6.5Z" fill="#4E8DF5"/>
<path fill-rule="evenodd" clip-rule="evenodd" d="M9.5 27C8.67157 27 8 26.3284 8 25.5V25.25C8 26.0784 8.67157 26.75 9.5 26.75H22.5C23.3284 26.75 24 26.0784 24 25.25V25.5C24 26.3284 23.3284 27 22.5 27H9.5Z" fill="#417EE9"/>
<path fill-rule="evenodd" clip-rule="evenodd" d="M9.5 5C8.67157 5 8 5.67157 8 6.5V6.75C8 5.92157 8.67157 5.25 9.5 5.25H22.5C23.3284 5.25 24 5.92157 24 6.75V6.5C24 5.67157 23.3284 5 22.5 5H9.5Z" fill="#639AF6"/>
<path d="M24 16.125L18.6402 10.7652C18.4039 10.5289 18.5712 10.125 18.9053 10.125H24V16.125Z" fill="url(#paint1_linear_4584_1674)"/>
<path d="M18 5L24 11H19.5C18.6716 11 18 10.3284 18 9.5V5Z" fill="#A6C5FA"/>
<path fill-rule="evenodd" clip-rule="evenodd" d="M20 16H12V17H20V16ZM20 18H12V19H20V18ZM12 20H20V21H12V20ZM18 22H12V23H18V22Z" fill="white"/>
</g>
</g>
<rect x="0.1" y="0.1" width="31.8" height="31.8" rx="7.9" stroke="#D0D5DD" stroke-width="0.2"/>
<defs>
<filter id="filter0_b_4584_1674" x="-5" y="11" width="42" height="26" filterUnits="userSpaceOnUse" color-interpolation-filters="sRGB">
<feFlood flood-opacity="0" result="BackgroundImageFix"/>
<feGaussianBlur in="BackgroundImageFix" stdDeviation="2.5"/>
<feComposite in2="SourceAlpha" operator="in" result="effect1_backgroundBlur_4584_1674"/>
<feBlend mode="normal" in="SourceGraphic" in2="effect1_backgroundBlur_4584_1674" result="shape"/>
</filter>
<linearGradient id="paint0_linear_4584_1674" x1="16" y1="0" x2="16" y2="32" gradientUnits="userSpaceOnUse">
<stop stop-color="white"/>
<stop offset="1" stop-color="#D0D5DD"/>
</linearGradient>
<linearGradient id="paint1_linear_4584_1674" x1="21" y1="16.125" x2="21" y2="10" gradientUnits="userSpaceOnUse">
<stop stop-color="#4E8DF5"/>
<stop offset="1" stop-color="#3D6ACD"/>
</linearGradient>
<clipPath id="clip0_4584_1674">
<rect width="32" height="32" rx="8" fill="white"/>
</clipPath>
</defs>
</svg>
